<svg width="33" height="34" viewBox="0 0 33 34" fill="none" xmlns="http://www.w3.org/2000/svg">
<path d="M24.7119 9.54309H26.1794M7.83578 1.97635H25.4457C28.6876 1.97635 31.3156 4.68655 31.3156 8.02975V26.1899C31.3156 29.5331 28.6876 32.2433 25.4457 32.2433H7.83578C4.59389 32.2433 1.96582 29.5331 1.96582 26.1899V8.02975C1.96582 4.68655 4.59389 1.97635 7.83578 1.97635ZM16.6407 23.1632C13.3988 23.1632 10.7708 20.453 10.7708 17.1098C10.7708 13.7666 13.3988 11.0564 16.6407 11.0564C19.8826 11.0564 22.5107 13.7666 22.5107 17.1098C22.5107 20.453 19.8826 23.1632 16.6407 23.1632Z" stroke="#F2F2F2" stroke-width="3"/>
</svg>
