<svg width="23" height="16" viewBox="0 0 23 16" fill="none" xmlns="http://www.w3.org/2000/svg">
<path fill-rule="evenodd" clip-rule="evenodd" d="M19.8275 0.477677C20.7853 0.740516 21.5397 1.51497 21.7957 2.49845C22.2609 4.2809 22.2609 8 22.2609 8C22.2609 8 22.2609 11.719 21.7957 13.5015C21.5397 14.485 20.7853 15.2595 19.8275 15.5225C18.0916 16 11.1304 16 11.1304 16C11.1304 16 4.16923 16 2.43327 15.5225C1.47542 15.2595 0.721075 14.485 0.465075 13.5015C0 11.719 0 8 0 8C0 8 0 4.2809 0.465075 2.49845C0.721075 1.51497 1.47542 0.740516 2.43327 0.477677C4.16923 0 11.1304 0 11.1304 0C11.1304 0 18.0916 0 19.8275 0.477677ZM9.04297 4.86957V11.8261L14.6082 8.34796L9.04297 4.86957Z" fill="#F2F2F2"/>
</svg>
